<svg width="620" height="757" viewBox="0 0 620 757" fill="none" xmlns="http://www.w3.org/2000/svg">
<path d="M564.979 172.947H560.98V63.4019C560.98 55.0759 559.34 46.8313 556.154 39.1391C552.968 31.4468 548.297 24.4574 542.41 18.57C536.523 12.6826 529.533 8.01245 521.841 4.8262C514.149 1.63995 505.904 5.25305e-06 497.578 1.77451e-10H265.491C257.165 -1.96981e-05 248.921 1.6399 241.229 4.82613C233.536 8.01235 226.547 12.6825 220.66 18.5699C214.772 24.4573 210.102 31.4466 206.916 39.1389C203.729 46.8312 202.089 55.0757 202.089 63.4017V664.376C202.089 681.191 208.769 697.318 220.659 709.208C232.55 721.098 248.676 727.778 265.491 727.778H497.578C514.393 727.778 530.52 721.098 542.41 709.208C554.3 697.318 560.98 681.192 560.98 664.376V250.923H564.979V172.947Z" fill="#E6E6E6"/>
<path d="M500.136 16.495H469.841C471.234 19.9106 471.766 23.6165 471.39 27.2861C471.013 30.9556 469.74 34.4764 467.683 37.538C465.625 40.5997 462.846 43.1084 459.591 44.8431C456.335 46.5778 452.703 47.4852 449.014 47.4855H316.055C312.366 47.4852 308.734 46.5778 305.478 44.8431C302.222 43.1084 299.444 40.5997 297.386 37.538C295.328 34.4763 294.055 30.9556 293.679 27.286C293.302 23.6164 293.834 19.9106 295.227 16.4949H266.932C254.374 16.4949 242.331 21.4833 233.452 30.3628C224.572 39.2422 219.584 51.2853 219.584 63.8427V663.935C219.584 670.153 220.809 676.31 223.188 682.054C225.568 687.799 229.055 693.019 233.452 697.415C237.848 701.812 243.068 705.3 248.813 707.679C254.557 710.058 260.714 711.283 266.932 711.283H500.136C506.354 711.283 512.511 710.058 518.255 707.679C524 705.3 529.219 701.812 533.616 697.415C538.013 693.019 541.5 687.799 543.88 682.055C546.259 676.31 547.484 670.153 547.484 663.935V63.8427C547.484 57.6249 546.259 51.468 543.88 45.7235C541.5 39.979 538.013 34.7594 533.616 30.3628C529.219 25.9661 524 22.4785 518.255 20.0991C512.511 17.7196 506.354 16.495 500.136 16.495V16.495Z" fill="white"/>
<path d="M338.807 751.864H335.807L341.807 350.864H344.807L338.807 751.864Z" fill="#3F3D56"/>
<path d="M420.807 751.864H417.807L411.807 350.864H414.807L420.807 751.864Z" fill="#3F3D56"/>
<path d="M412.807 358.864H342.807V361.864H412.807V358.864Z" fill="#3F3D56"/>
<path d="M412.807 410.864H342.807V413.864H412.807V410.864Z" fill="#3F3D56"/>
<path d="M414.807 462.864H341.807V465.864H414.807V462.864Z" fill="#3F3D56"/>
<path d="M415.807 514.864H341.807V517.864H415.807V514.864Z" fill="#3F3D56"/>
<path d="M416.807 566.864H340.807V569.864H416.807V566.864Z" fill="#3F3D56"/>
<path d="M416.807 618.864H339.807V621.864H416.807V618.864Z" fill="#3F3D56"/>
<path d="M417.807 670.864H338.807V673.864H417.807V670.864Z" fill="#3F3D56"/>
<path d="M418.807 722.864H336.807V725.864H418.807V722.864Z" fill="#3F3D56"/>
<path d="M374.474 546.23C397.677 546.23 416.487 527.42 416.487 504.217C416.487 481.015 397.677 462.205 374.474 462.205C351.271 462.205 332.462 481.015 332.462 504.217C332.462 527.42 351.271 546.23 374.474 546.23Z" fill="#2F2E41"/>
<path d="M399.186 533.256L386.627 535.529L390.7 558.031L403.259 555.758L399.186 533.256Z" fill="#2F2E41"/>
<path d="M374.068 537.803L361.509 540.076L365.582 562.578L378.141 560.304L374.068 537.803Z" fill="#2F2E41"/>
<path d="M372.249 567.309C376.732 563.513 379.212 559.073 377.788 557.392C376.364 555.711 371.577 557.426 367.094 561.222C362.611 565.018 360.132 569.458 361.555 571.139C362.979 572.82 367.767 571.106 372.249 567.309Z" fill="#2F2E41"/>
<path d="M396.844 562.857C401.327 559.061 403.807 554.62 402.383 552.939C400.959 551.258 396.172 552.973 391.689 556.77C387.206 560.566 384.727 565.006 386.15 566.687C387.574 568.368 392.362 566.653 396.844 562.857Z" fill="#2F2E41"/>
<path d="M371.533 508.3C379.463 508.3 385.892 501.871 385.892 493.941C385.892 486.011 379.463 479.582 371.533 479.582C363.603 479.582 357.174 486.011 357.174 493.941C357.174 501.871 363.603 508.3 371.533 508.3Z" fill="white"/>
<path d="M365.632 493.58C368.275 493.58 370.418 491.438 370.418 488.794C370.418 486.151 368.275 484.008 365.632 484.008C362.988 484.008 360.845 486.151 360.845 488.794C360.845 491.438 362.988 493.58 365.632 493.58Z" fill="#3F3D56"/>
<path d="M407.616 458.512C408.248 442.959 394.843 429.785 377.675 429.088C360.508 428.39 346.078 440.434 345.447 455.987C344.815 471.541 356.748 475.075 373.916 475.772C391.084 476.469 406.984 474.066 407.616 458.512Z" fill="#6C63FF"/>
<path d="M356.157 501.257C356.97 497.707 348.463 492.728 337.155 490.136C325.847 487.544 316.02 488.32 315.207 491.87C314.393 495.42 322.9 500.399 334.208 502.991C345.516 505.583 355.343 504.807 356.157 501.257Z" fill="#2F2E41"/>
<path d="M438.625 514.971C439.439 511.421 430.932 506.442 419.624 503.85C408.315 501.258 398.489 502.035 397.675 505.585C396.861 509.135 405.369 514.114 416.677 516.706C427.985 519.298 437.812 518.521 438.625 514.971Z" fill="#2F2E41"/>
<path d="M386.013 520.774C386.239 522.011 386.219 523.281 385.954 524.51C385.69 525.74 385.185 526.905 384.47 527.939C383.755 528.974 382.843 529.857 381.786 530.539C380.729 531.221 379.548 531.688 378.311 531.913C377.074 532.138 375.804 532.117 374.575 531.852C373.346 531.586 372.181 531.081 371.147 530.365C370.113 529.649 369.23 528.736 368.549 527.679C367.868 526.621 367.402 525.44 367.178 524.203L367.174 524.184C366.233 518.982 370.255 517.141 375.457 516.2C380.659 515.258 385.071 515.572 386.013 520.774Z" fill="white"/>
<path d="M519.335 255.24L250.412 279.342C249.091 279.459 247.779 279.047 246.761 278.197C245.744 277.347 245.105 276.129 244.986 274.809L239.007 208.1C238.89 206.78 239.302 205.467 240.152 204.45C241.002 203.433 242.22 202.794 243.541 202.674L512.463 178.572C513.784 178.455 515.096 178.867 516.114 179.717C517.131 180.567 517.77 181.786 517.89 183.106L523.868 249.814C523.985 251.135 523.573 252.447 522.723 253.465C521.873 254.482 520.655 255.121 519.335 255.24V255.24ZM243.719 204.666C242.927 204.738 242.196 205.121 241.686 205.731C241.176 206.342 240.929 207.13 240.999 207.922L246.978 274.63C247.049 275.422 247.433 276.153 248.043 276.663C248.653 277.173 249.441 277.42 250.233 277.35L519.156 253.248C519.948 253.177 520.679 252.793 521.189 252.183C521.699 251.573 521.946 250.785 521.876 249.993L515.898 183.284C515.826 182.492 515.443 181.761 514.832 181.251C514.222 180.741 513.434 180.494 512.642 180.564L243.719 204.666Z" fill="#E6E6E6"/>
<path d="M281.836 258.884C293.434 258.884 302.836 249.482 302.836 237.884C302.836 226.286 293.434 216.884 281.836 216.884C270.238 216.884 260.836 226.286 260.836 237.884C260.836 249.482 270.238 258.884 281.836 258.884Z" fill="#3F3D56"/>
<path d="M328.893 219.61C328.435 219.651 327.99 219.782 327.583 219.995C327.176 220.208 326.814 220.499 326.52 220.852C326.225 221.205 326.003 221.612 325.865 222.051C325.728 222.489 325.679 222.951 325.72 223.409C325.761 223.866 325.891 224.312 326.104 224.719C326.318 225.126 326.609 225.487 326.961 225.782C327.314 226.077 327.722 226.299 328.16 226.436C328.599 226.574 329.06 226.623 329.518 226.582L493.859 211.853C494.317 211.812 494.762 211.681 495.17 211.468C495.577 211.255 495.938 210.964 496.233 210.611C496.527 210.259 496.75 209.851 496.887 209.413C497.024 208.974 497.074 208.513 497.033 208.055C496.992 207.597 496.861 207.152 496.648 206.745C496.435 206.337 496.144 205.976 495.791 205.681C495.438 205.387 495.031 205.164 494.592 205.027C494.154 204.89 493.692 204.84 493.234 204.881L328.893 219.61Z" fill="#E6E6E6"/>
<path d="M330.768 240.526C330.309 240.566 329.862 240.695 329.453 240.908C329.044 241.12 328.681 241.411 328.385 241.764C328.089 242.117 327.865 242.525 327.727 242.965C327.589 243.404 327.539 243.867 327.58 244.326C327.622 244.785 327.753 245.231 327.967 245.639C328.181 246.047 328.473 246.409 328.828 246.704C329.182 246.999 329.591 247.22 330.031 247.357C330.471 247.493 330.934 247.541 331.393 247.498L495.734 232.769C496.658 232.686 497.511 232.239 498.105 231.526C498.699 230.814 498.987 229.895 498.904 228.971C498.821 228.047 498.375 227.194 497.663 226.599C496.952 226.004 496.033 225.716 495.109 225.797L330.768 240.526Z" fill="#E6E6E6"/>
<path d="M421.18 270.907C425.426 259.798 426.041 249.712 422.554 248.379C419.066 247.046 412.797 254.971 408.551 266.08C404.305 277.189 403.69 287.275 407.178 288.608C410.665 289.941 416.934 282.016 421.18 270.907Z" fill="#2F2E41"/>
<path d="M417.57 307.914C421.38 284.436 405.435 262.314 381.957 258.504C358.479 254.694 336.357 270.639 332.547 294.117C328.737 317.595 344.682 339.717 368.16 343.527C391.638 347.337 413.76 331.392 417.57 307.914Z" fill="#2F2E41"/>
<path d="M368.517 334.815H355.433V358.257H368.517V334.815Z" fill="#2F2E41"/>
<path d="M394.684 334.815H381.6V358.257H394.684V334.815Z" fill="#2F2E41"/>
<path d="M366.336 362.618C372.358 362.618 377.239 360.788 377.239 358.529C377.239 356.271 372.358 354.441 366.336 354.441C360.314 354.441 355.433 356.271 355.433 358.529C355.433 360.788 360.314 362.618 366.336 362.618Z" fill="#2F2E41"/>
<path d="M392.503 362.073C398.525 362.073 403.407 360.242 403.407 357.984C403.407 355.726 398.525 353.896 392.503 353.896C386.482 353.896 381.6 355.726 381.6 357.984C381.6 360.242 386.482 362.073 392.503 362.073Z" fill="#2F2E41"/>
<path d="M333.282 260.964C329.804 245.39 340.92 229.654 358.11 225.815C375.3 221.977 392.055 231.49 395.532 247.064C399.01 262.638 387.617 268.382 370.427 272.22C353.237 276.058 336.759 276.538 333.282 260.964Z" fill="#6C63FF"/>
<path d="M346.007 290.26C347.607 286.887 340.193 280.021 329.447 274.924C318.702 269.828 308.694 268.431 307.094 271.804C305.494 275.178 312.908 282.044 323.654 287.14C334.399 292.236 344.407 293.633 346.007 290.26Z" fill="#2F2E41"/>
<path d="M115.581 737.69C139.366 737.69 158.648 718.408 158.648 694.623C158.648 670.838 139.366 651.556 115.581 651.556C91.7951 651.556 72.5132 670.838 72.5132 694.623C72.5132 718.408 91.7951 737.69 115.581 737.69Z" fill="#2F2E41"/>
<path d="M109.039 728.423H95.955V751.864H109.039V728.423Z" fill="#2F2E41"/>
<path d="M135.206 728.423H122.122V751.864H135.206V728.423Z" fill="#2F2E41"/>
<path d="M106.858 756.226C112.88 756.226 117.761 754.395 117.761 752.137C117.761 749.879 112.88 748.048 106.858 748.048C100.836 748.048 95.9548 749.879 95.9548 752.137C95.9548 754.395 100.836 756.226 106.858 756.226Z" fill="#2F2E41"/>
<path d="M133.026 755.68C139.047 755.68 143.929 753.85 143.929 751.592C143.929 749.334 139.047 747.503 133.026 747.503C127.004 747.503 122.122 749.334 122.122 751.592C122.122 753.85 127.004 755.68 133.026 755.68Z" fill="#2F2E41"/>
<path d="M116.671 698.439C124.8 698.439 131.39 691.849 131.39 683.72C131.39 675.591 124.8 669.001 116.671 669.001C108.542 669.001 101.952 675.591 101.952 683.72C101.952 691.849 108.542 698.439 116.671 698.439Z" fill="white"/>
<path d="M116.671 688.626C119.381 688.626 121.577 686.43 121.577 683.72C121.577 681.01 119.381 678.813 116.671 678.813C113.961 678.813 111.764 681.01 111.764 683.72C111.764 686.43 113.961 688.626 116.671 688.626Z" fill="#3F3D56"/>
<path d="M73.8037 654.572C70.3262 638.998 81.4423 623.261 98.6323 619.423C115.822 615.584 132.577 625.098 136.054 640.672C139.532 656.245 128.139 661.989 110.949 665.828C93.7592 669.666 77.2812 670.145 73.8037 654.572Z" fill="#E6E6E6"/>
<path d="M146.983 540.764C151.229 529.655 151.844 519.569 148.357 518.236C144.869 516.903 138.6 524.828 134.354 535.937C130.108 547.046 129.493 557.132 132.98 558.465C136.468 559.798 142.737 551.873 146.983 540.764Z" fill="#2F2E41"/>
<path d="M143.373 577.771C147.183 554.293 131.238 532.171 107.76 528.361C84.2816 524.551 62.1601 540.496 58.35 563.974C54.54 587.452 70.4843 609.574 93.9626 613.384C117.441 617.194 139.563 601.25 143.373 577.771Z" fill="#2F2E41"/>
<path d="M94.3195 604.672H81.2357V628.114H94.3195V604.672Z" fill="#2F2E41"/>
<path d="M120.487 604.672H107.403V628.114H120.487V604.672Z" fill="#2F2E41"/>
<path d="M92.1389 632.475C98.1605 632.475 103.042 630.645 103.042 628.387C103.042 626.128 98.1605 624.298 92.1389 624.298C86.1172 624.298 81.2357 626.128 81.2357 628.387C81.2357 630.645 86.1172 632.475 92.1389 632.475Z" fill="#2F2E41"/>
<path d="M118.306 631.93C124.328 631.93 129.209 630.099 129.209 627.841C129.209 625.583 124.328 623.753 118.306 623.753C112.285 623.753 107.403 625.583 107.403 627.841C107.403 630.099 112.285 631.93 118.306 631.93Z" fill="#2F2E41"/>
<path d="M101.952 574.689C110.081 574.689 116.671 568.099 116.671 559.969C116.671 551.84 110.081 545.25 101.952 545.25C93.8224 545.25 87.2324 551.84 87.2324 559.969C87.2324 568.099 93.8224 574.689 101.952 574.689Z" fill="white"/>
<path d="M101.952 564.876C104.661 564.876 106.858 562.679 106.858 559.969C106.858 557.26 104.661 555.063 101.952 555.063C99.2418 555.063 97.0452 557.26 97.0452 559.969C97.0452 562.679 99.2418 564.876 101.952 564.876Z" fill="#3F3D56"/>
<path d="M59.0846 530.821C55.6071 515.247 66.7232 499.511 83.9132 495.672C101.103 491.834 117.857 501.347 121.335 516.921C124.812 532.495 113.42 538.239 96.23 542.077C79.0401 545.915 62.5621 546.395 59.0846 530.821Z" fill="#6C63FF"/>
<path d="M71.8094 560.117C73.4093 556.744 65.9954 549.878 55.25 544.781C44.5046 539.685 34.4968 538.288 32.8969 541.661C31.297 545.035 38.7108 551.901 49.4562 556.997C60.2016 562.093 70.2095 563.49 71.8094 560.117Z" fill="#2F2E41"/>
<path d="M79.7068 586.41C79.7068 590.625 90.5601 598.948 102.603 598.948C114.647 598.948 125.938 587.081 125.938 582.866C125.938 578.651 114.647 583.684 102.603 583.684C90.5601 583.684 79.7068 582.194 79.7068 586.41Z" fill="white"/>
<path d="M286.031 571.883C290.277 560.774 290.892 550.688 287.404 549.355C283.917 548.022 277.648 555.947 273.402 567.056C269.155 578.165 268.54 588.251 272.028 589.584C275.515 590.917 281.785 582.992 286.031 571.883Z" fill="#2F2E41"/>
<path d="M291.42 617.891C295.23 594.412 279.286 572.291 255.807 568.481C232.329 564.671 210.208 580.615 206.398 604.093C202.588 627.572 218.532 649.693 242.01 653.503C265.489 657.313 287.61 641.369 291.42 617.891Z" fill="#2F2E41"/>
<path d="M229.68 627.226C229.68 631.441 240.533 639.765 252.576 639.765C264.62 639.765 275.911 627.898 275.911 623.683C275.911 619.467 264.619 624.5 252.576 624.5C240.533 624.5 229.68 623.011 229.68 627.226Z" fill="white"/>
<path d="M229.284 644.792H242.367L239.807 672.864L229.284 668.233V644.792Z" fill="#2F2E41"/>
<path d="M240.344 681.112C242.334 680.044 241.637 674.877 238.789 669.572C235.94 664.266 232.018 660.832 230.029 661.9C228.039 662.968 228.736 668.135 231.584 673.44C234.433 678.745 238.355 682.18 240.344 681.112Z" fill="#2F2E41"/>
<path d="M257.807 644.864H270.891L268.331 672.937L257.807 668.306V644.864Z" fill="#2F2E41"/>
<path d="M268.868 681.185C270.857 680.117 270.161 674.95 267.312 669.645C264.464 664.339 260.542 660.904 258.552 661.973C256.563 663.041 257.259 668.208 260.108 673.513C262.956 678.818 266.878 682.253 268.868 681.185Z" fill="#2F2E41"/>
<path d="M249.999 614.808C258.128 614.808 264.718 608.218 264.718 600.089C264.718 591.96 258.128 585.37 249.999 585.37C241.87 585.37 235.28 591.96 235.28 600.089C235.28 608.218 241.87 614.808 249.999 614.808Z" fill="white"/>
<path d="M249.999 604.995C252.709 604.995 254.906 602.798 254.906 600.089C254.906 597.379 252.709 595.182 249.999 595.182C247.289 595.182 245.093 597.379 245.093 600.089C245.093 602.798 247.289 604.995 249.999 604.995Z" fill="#3F3D56"/>
<path d="M207.132 570.94C203.655 555.367 214.771 539.63 231.961 535.792C249.151 531.953 265.905 541.467 269.382 557.04C272.86 572.614 261.468 578.358 244.278 582.196C227.088 586.035 210.61 586.514 207.132 570.94Z" fill="#F2F2F2"/>
<path d="M216.194 598.33C219.197 596.111 215.904 586.558 208.838 576.992C201.773 567.426 193.61 561.469 190.607 563.687C187.604 565.905 190.897 575.459 197.963 585.025C205.029 594.591 213.191 600.548 216.194 598.33Z" fill="#2F2E41"/>
<path d="M224.807 574.935C212.33 574.94 199.974 572.487 188.446 567.714C176.918 562.942 166.443 555.945 157.62 547.122C148.798 538.3 141.8 527.825 137.028 516.297C132.255 504.768 129.802 492.413 129.807 479.936C129.807 479.737 129.807 479.527 129.819 479.329C130.11 427.303 172.722 384.936 224.807 384.936C246.238 384.939 267.038 392.187 283.83 405.503C300.622 418.818 312.419 437.42 317.306 458.287C322.192 479.153 319.881 501.059 310.747 520.446C301.613 539.833 286.193 555.563 266.992 565.081C253.888 571.601 239.444 574.976 224.807 574.935ZM224.807 386.936C200.253 386.99 176.713 396.731 159.301 414.043C141.89 431.355 132.013 454.838 131.817 479.391C131.806 479.604 131.807 479.774 131.807 479.936C131.801 503.52 140.755 526.226 156.858 543.458C172.96 560.69 195.009 571.16 218.54 572.749C242.071 574.339 265.327 566.929 283.6 552.019C301.874 537.109 313.801 515.814 316.966 492.442C318.754 479.293 317.706 465.913 313.893 453.201C310.08 440.49 303.591 428.743 294.861 418.748C286.13 408.753 275.362 400.743 263.279 395.256C251.195 389.769 238.078 386.932 224.807 386.936Z" fill="#3F3D56"/>
<path d="M250.21 466.976C247.731 451.02 237.106 439 224.18 439C213.909 439 205.055 446.63 200.627 457.726C190.002 459.113 181.68 470.906 181.68 485.25C181.68 500.51 191.24 513 202.93 513H248.971C258.71 513 266.68 502.593 266.68 489.875C266.698 484.031 265.001 478.401 261.938 474.141C258.874 469.882 254.677 467.317 250.21 466.976V466.976ZM229.845 480.614V498.189H218.511V480.614H206.47L224.178 457.5L241.886 480.625L229.845 480.614Z" fill="#6C63FF"/>
<path d="M130.656 711.991C130.882 713.228 130.862 714.498 130.597 715.727C130.333 716.957 129.828 718.122 129.113 719.156C128.398 720.191 127.486 721.074 126.429 721.756C125.372 722.438 124.191 722.905 122.954 723.13C121.716 723.355 120.447 723.334 119.218 723.069C117.988 722.803 116.823 722.298 115.789 721.582C114.756 720.866 113.873 719.953 113.192 718.896C112.511 717.839 112.045 716.657 111.82 715.42L111.817 715.401C110.875 710.199 114.898 708.358 120.1 707.417C125.302 706.475 129.714 706.789 130.656 711.991Z" fill="white"/>
</svg>
